# xmcd CD database file
#
# Track frame offsets:
#	187
#	16357
#	32807
#
# Disc length: 650 seconds
#
# Revision: 1
# Processed by: cddbd v1.5.1PL0 Copyright (c) Steve Scherf et al.
# Submitted via: CDex 1.51
#
DISCID=1b028803
DTITLE=EDU - [VICTOR] KISS ME
DYEAR=1995
DGENRE=Pop
TTITLE0=KISS ME
TTITLE1=OH YEAH!
TTITLE2=OH YEAH! (カラオケ)
EXTD=YEAR: 1995.8.23
EXTT0=
EXTT1=
EXTT2=
PLAYORDER=
